<?xml version="1.0" encoding="utf-8"?>
<!-- Generator: Adobe Illustrator 25.2.1, SVG Export Plug-In . SVG Version: 6.00 Build 0)  -->
<svg version="1.1" id="Layer_1" xmlns="http://www.w3.org/2000/svg" xmlns:xlink="http://www.w3.org/1999/xlink" x="0px" y="0px"
	 viewBox="0 0 211.25 86.1" style="enable-background:new 0 0 211.25 86.1;" xml:space="preserve">
<style type="text/css">
	.st0{fill:#F7941D;}
	.st1{font-family:'CHICKENPie';}
	.st2{font-size:36px;}
	.st3{font-size:72px;}
	.st4{fill:none;stroke:#C67715;stroke-width:4;stroke-linecap:round;stroke-miterlimit:10;}
	.st5{display:none;fill:#414042;}
	.st6{fill:#FBB040;}
	.st7{fill:#C67715;}
</style>
<text transform="matrix(1 0 0 1 0 25.54)"><tspan x="0" y="0" class="st0 st1 st2">NO</tspan><tspan x="0" y="60" class="st0 st1 st3">POWER</tspan></text>
<path class="st4" d="M46.63,1.98c0,0-10.58,22.11,14.9,23.56s46.15-12.5,59.62-11.78"/>
<path class="st0" d="M144.27,25.64h-16.64c-4.42,0-8-3.58-8-8V8c0-4.42,3.58-8,8-8h16.64c0.55,0,1,0.45,1,1v23.64
	C145.27,25.2,144.83,25.64,144.27,25.64z"/>
<path class="st0" d="M156.87,9.56h-8.81V3.92h8.81c1.1,0,2,0.9,2,2v1.64C158.87,8.67,157.98,9.56,156.87,9.56z"/>
<path class="st0" d="M156.87,22.38h-8.81v-5.64h8.81c1.1,0,2,0.9,2,2v1.64C158.87,21.48,157.98,22.38,156.87,22.38z"/>
<path class="st5" d="M177.24,0v25.54h34.02V0H177.24z M188.18,19.56h-5.19V6.74h5.19V19.56z M205.65,19.56h-5.19V6.74h5.19V19.56z"
	/>
<g>
	<polygon class="st6" points="175.31,0.65 168.19,15.37 176.94,15.37 172.56,25 183.79,11 175.89,11 183.79,0.65 	"/>
	<path class="st7" d="M175.33,0.69c-1.1,2.58-2.21,5.07-3.33,7.55c-1.11,2.47-2.27,4.89-3.41,7.33l-0.4-0.64l4.37,0.03l4.37,0.11
		l0.48,0.01l-0.2,0.41c-0.77,1.59-1.56,3.16-2.3,4.76c-0.75,1.59-1.49,3.19-2.2,4.81l-0.29-0.18c1.86-2.34,3.65-4.74,5.47-7.11
		c1.82-2.37,3.66-4.73,5.51-7.08l0.38,0.79l-3.95,0.04l-3.95-0.01l-1.06,0l0.65-0.83c1.33-1.71,2.63-3.45,3.99-5.15l4.05-5.1
		L183.79,1C181.03,0.93,178.22,0.81,175.33,0.69z M175.28,0.61c2.77-0.12,5.62-0.24,8.51-0.3l0.7-0.02l-0.42,0.57l-3.85,5.25
		c-1.27,1.76-2.61,3.47-3.91,5.2l-0.41-0.83l3.95-0.01l3.95,0.04l1.02,0.01l-0.64,0.78c-1.89,2.32-3.79,4.62-5.72,6.92
		c-1.93,2.29-3.88,4.56-5.76,6.88l-0.9,1.11l0.61-1.29c0.75-1.59,1.47-3.2,2.18-4.82c0.72-1.61,1.39-3.24,2.08-4.86l0.27,0.43
		l-4.37,0.11l-4.37,0.03l-0.73,0.01l0.32-0.65c1.24-2.47,2.45-4.96,3.71-7.39C172.75,5.35,174.01,2.94,175.28,0.61z"/>
</g>
</svg>
